{"title":"Black Jesus S01E05 Fried Green Tomatoes (1920x1080) [Phr0stY].mk","uid":10995839,"size":830228116,"categoryP":"video","categoryS":"hd___tv_shows","magnet":"?xt=urn:btih:71826208c839371ca4ee2366225d47663b8987b8&amp;dn=Black+Jesus+S01E05+Fried+Green+Tomatoes+%281920x1080%29+%5BPhr0stY%5D.mk&amp;tr=udp%3A%2F%2Ftracker.openbittorrent.com%3A80&amp;tr=udp%3A%2F%2Fopen.demonii.com%3A1337&amp;tr=udp%3A%2F%2Ftracker.coppersurfer.tk%3A6969&amp;tr=udp%3A%2F%2Fexodus.desync.com%3A6969","seeders":5,"leechers":0,"uploader":"frostyon420","files":-1,"time":1410064182,"description":"Format                                   : Matroska\nFormat version                           : Version 4 / Version 2\nFile size                                : 792 MiB\nDuration                                 : 20mn 3s\nOverall bit rate                         : 5 518 Kbps\nEncoded date                             : UTC 2014-09-07 02:20:59\nWriting application                      : mkvmerge v7.1.0 ('Good Love') 64bit built on Jul 27 2014 13:06:55\nWriting library                          : libebml v1.3.0 + libmatroska v1.4.1\nCover                                    : Yes\nDURATION                                 : 00:20:03.584000000\nNUMBER_OF_FRAMES                         : 37612\nNUMBER_OF_BYTES                          : 57772032\n_STATISTICS_WRITING_APP                  : mkvmerge v7.1.0 ('Good Love') 64bit built on Jul 27 2014 13:06:55\n_STATISTICS_WRITING_DATE_UTC             : 2014-09-07 02:20:59\n_STATISTICS_TAGS                         : BPS DURATION NUMBER_OF_FRAMES NUMBER_OF_BYTES\n\nVideo\nID                                       : 1\nFormat                                   : AVC\nFormat/Info                              : Advanced Video Codec\nFormat profile                           : &lt;a class=&quot;__cf_email__&quot; href=&quot;/cdn-cgi/l/email-protection&quot; data-cfemail=&quot;e1a9888689a1add5cfd1&quot;&gt;[email&amp;#160;protected]&lt;/a&gt;&lt;script cf-hash='f9e31' type=&quot;text/javascript&quot;&gt;\n/* &lt;![CDATA[ */!function(){try{var t=&quot;currentScript&quot;in document?document.currentScript:function(){for(var t=document.getElementsByTagName(&quot;script&quot;),e=t.length;e--;)if(t[e].getAttribute(&quot;cf-hash&quot;))return t[e]}();if(t&amp;&amp;t.previousSibling){var e,r,n,i,c=t.previousSibling,a=c.getAttribute(&quot;data-cfemail&quot;);if(a){for(e=&quot;&quot;,r=parseInt(a.substr(0,2),16),n=2;a.length-n;n+=2)i=parseInt(a.substr(n,2),16)^r,e+=String.fromCharCode(i);e=document.createTextNode(e),c.parentNode.replaceChild(e,c)}}}catch(u){}}();/* ]]&gt; */&lt;/script&gt;\nFormat settings, CABAC                   : Yes\nFormat settings, ReFrames                : 4 frames\nCodec ID                                 : V_MPEG4/ISO/AVC\nDuration                                 : 20mn 3s\nBit rate                                 : 5 025 Kbps\nWidth                                    : 1 920 pixels\nHeight                                   : 1 080 pixels\nDisplay aspect ratio                     : 16:9\nFrame rate mode                          : Constant\nFrame rate                               : 23.976 fps\nColor space                              : YUV\nChroma subsampling                       : 4:2:0\nBit depth                                : 8 bits\nScan type                                : Progressive\nBits/(Pixel*Frame)                       : 0.101\nStream size                              : 721 MiB (91%)\nLanguage                                 : English\nDefault                                  : Yes\nForced                                   : No\nColor primaries                          : BT.709\nTransfer characteristics                 : BT.709\nMatrix coefficients                      : BT.709\n\nAudio\nID                                       : 2\nFormat                                   : AC-3\nFormat/Info                              : Audio Coding 3\nMode extension                           : CM (complete main)\nFormat settings, Endianness              : Big\nCodec ID                                 : A_AC3\nDuration                                 : 20mn 3s\nBit rate mode                            : Constant\nBit rate                                 : 384 Kbps\nChannel(s)                               : 6 channels\nChannel positions                        : Front: L C R, Side: L R, LFE\nSampling rate                            : 48.0 KHz\nBit depth                                : 16 bits\nCompression mode                         : Lossy\nStream size                              : 55.1 MiB (7%)\nLanguage                                 : English\nDefault                                  : Yes\nForced                                   : No\n\n","torrent":{"xt":"urn:btih:71826208c839371ca4ee2366225d47663b8987b8","amp;dn":"Black+Jesus+S01E05+Fried+Green+Tomatoes+%281920x1080%29+%5BPhr0stY%5D.mk","amp;tr":["udp%3A%2F%2Ftracker.openbittorrent.com%3A80","udp%3A%2F%2Fopen.demonii.com%3A1337","udp%3A%2F%2Ftracker.coppersurfer.tk%3A6969","udp%3A%2F%2Fexodus.desync.com%3A6969"],"infoHash":"71826208c839371ca4ee2366225d47663b8987b8","infoHashBuffer":{"type":"Buffer","data":[113,130,98,8,200,57,55,28,164,238,35,102,34,93,71,102,59,137,135,184]},"announce":[],"urlList":[]}}